<?xml version="1.0" encoding="utf-8"?>
<!-- Generator: Adobe Illustrator 17.0.2, SVG Export Plug-In . SVG Version: 6.00 Build 0)  -->
<!DOCTYPE svg PUBLIC "-//W3C//DTD SVG 1.1//EN" "http://www.w3.org/Graphics/SVG/1.1/DTD/svg11.dtd">
<svg version="1.1" id="Layer_1" xmlns="http://www.w3.org/2000/svg" xmlns:xlink="http://www.w3.org/1999/xlink" x="0px" y="0px"
	 width="612px" height="1008px" viewBox="0 0 612 1008" enable-background="new 0 0 612 1008" xml:space="preserve">
<path fill="none" stroke="#010101" stroke-miterlimit="10" d="M248.069,474.742c-6.876,0-13.75,2.623-18.995,7.868
	c-5.245,5.245-7.868,12.122-7.868,18.995c0,6.876,2.623,13.75,7.868,18.995c0.239,0.239,0.481,0.46,0.724,0.688
	c0.123,0.145,0.257,0.296,0.415,0.454l19.715,19.712c8.206,8.209,12.734,12.312,17.262,12.312c4.528,0,9.053-4.103,17.258-12.312
	l20.661-20.661c0.015-0.011,0.021-0.021,0.035-0.035c0.011-0.011,0.021-0.021,0.035-0.032c5.245-5.248,7.868-12.122,7.868-18.995
	c0-6.876-2.623-13.75-7.868-18.995c-5.245-5.246-12.122-7.868-18.995-7.868c-6.876,0-13.749,2.623-18.995,7.868
	c0,0-0.003,0-0.003,0.003c-0.042-0.042-0.081-0.088-0.123-0.13C261.819,477.365,254.946,474.742,248.069,474.742L248.069,474.742z"
	/>
</svg>
