<?xml version="1.0" encoding="utf-8"?>
<!-- Generator: Adobe Illustrator 17.0.2, SVG Export Plug-In . SVG Version: 6.00 Build 0)  -->
<!DOCTYPE svg PUBLIC "-//W3C//DTD SVG 1.1//EN" "http://www.w3.org/Graphics/SVG/1.1/DTD/svg11.dtd">
<svg version="1.1" id="Layer_1" xmlns="http://www.w3.org/2000/svg" xmlns:xlink="http://www.w3.org/1999/xlink" x="0px" y="0px"
	 width="612px" height="1008px" viewBox="0 0 612 1008" enable-background="new 0 0 612 1008" xml:space="preserve">
<path fill="none" stroke="#333333" stroke-miterlimit="10" d="M334.999,549.552c-2.514,0-4.707-1.793-5.844-3.833h5.844h5.844
	C339.706,547.759,337.513,549.552,334.999,549.552z"/>
<path fill="none" stroke="#333333" stroke-miterlimit="10" d="M334.997,545.718h-31.303c5.851-5.804,8.803-17.526,8.803-35.055
	c0-13.07,3.767-22.293,11.195-27.412c5.539-3.816,11.215-3.86,11.273-3.86l0.024-4.256c-0.192,0.013-2.908,0.03-6.542,1.155
	c0.562-3.422,3.277-5.343,6.55-5.343c3.27,0,5.986,1.918,6.549,5.335c-3.628-1.126-6.34-1.144-6.539-1.146l0.024,4.256
	c0.057,0,5.735,0.043,11.273,3.86c7.429,5.119,11.195,14.341,11.195,27.412c0,17.529,2.952,29.251,8.803,35.055H334.997z"/>
</svg>
